<?xml version="1.0" encoding="UTF-8"?>
<svg version="1.1" xmlns="http://www.w3.org/2000/svg" width="600" height="600">
<path d="M0 0 C1.5071759 -0.0049926 1.5071759 -0.0049926 3.0447998 -0.01008606 C5.15909371 -0.01511395 7.27339544 -0.01749568 9.38769531 -0.01733398 C12.55808218 -0.01950681 15.72811255 -0.03766992 18.8984375 -0.05664062 C33.78657935 -0.09865563 48.50807458 0.32766448 63.06137085 3.69923401 C65.48928368 4.25919207 67.92850151 4.72535182 70.37890625 5.17578125 C85.0875791 7.98640433 99.02436276 12.06066241 113.09375 17.16796875 C114.16399414 17.5556543 114.16399414 17.5556543 115.25585938 17.95117188 C141.93794853 27.71556536 167.08155115 42.22525204 189.09375 60.16796875 C190.41246094 61.20050781 190.41246094 61.20050781 191.7578125 62.25390625 C204.56725043 72.4183275 216.34509138 83.85823415 227.09375 96.16796875 C227.55088379 96.68568848 228.00801758 97.2034082 228.47900391 97.73681641 C235.3169857 105.49942354 241.40143457 113.5264918 247.09375 122.16796875 C247.69832031 123.08191406 248.30289063 123.99585938 248.92578125 124.9375 C252.89252708 131.05327292 256.53605804 137.33927394 260.11328125 143.6875 C261.94248869 146.92640471 263.86132083 150.10696915 265.78125 153.29296875 C269.14334195 159.0727448 271.66178947 164.94928706 274.09375 171.16796875 C274.77952492 172.82102921 275.46719189 174.4733054 276.15625 176.125 C285.36408127 198.49195363 290.7662661 220.88845497 293.72412109 244.875 C293.97994626 247.18966867 293.97994626 247.18966867 295.09375 249.16796875 C296.13888662 255.93102073 296.24200499 262.73813747 296.2265625 269.56640625 C296.22751923 270.52261871 296.22847595 271.47883118 296.22946167 272.46401978 C296.23013746 274.47243313 296.22832549 276.48084875 296.22412109 278.48925781 C296.21877625 281.52804585 296.22408062 284.5666853 296.23046875 287.60546875 C296.23884018 309.09493128 296.23884018 309.09493128 295.09375 316.16796875 C294.76375 316.49796875 294.43375 316.82796875 294.09375 317.16796875 C293.81885826 318.89585967 293.59935589 320.63260052 293.40234375 322.37109375 C290.2540064 348.16763094 283.84821278 372.45424576 273.09375 396.16796875 C272.68866211 397.07015137 272.28357422 397.97233398 271.86621094 398.90185547 C266.63938431 410.46094782 260.87836192 421.45340238 254.09375 432.16796875 C253.25457031 433.55435547 253.25457031 433.55435547 252.3984375 434.96875 C247.19950332 443.44527313 241.16915532 451.30886273 235.09375 459.16796875 C234.35253906 460.12703125 233.61132812 461.08609375 232.84765625 462.07421875 C219.81153782 478.43713489 204.87703581 493.70077039 187.84863281 505.90185547 C185.841848 507.34971107 183.85478279 508.82279352 181.8671875 510.296875 C172.57477937 517.15298121 163.18659058 523.55069759 153.09375 529.16796875 C152.37106934 529.57112305 151.64838867 529.97427734 150.90380859 530.38964844 C134.00261517 539.73252188 116.43827633 547.15911931 98.09375 553.16796875 C97.00707031 553.52503906 95.92039062 553.88210938 94.80078125 554.25 C87.10437427 556.60298192 79.2873763 558.24913556 71.40625 559.85546875 C70.36082031 560.07017822 69.31539063 560.2848877 68.23828125 560.50610352 C62.505135 561.63852658 56.87882826 562.476913 51.04370117 562.83520508 C48.43817087 563.129117 46.02283436 563.6149269 43.46801758 564.18359375 C37.86279806 565.33371789 32.456087 565.43990176 26.75 565.3984375 C25.70026001 565.39797928 24.65052002 565.39752106 23.56896973 565.39704895 C21.36383931 565.39404672 19.15871063 565.38622195 16.95361328 565.3737793 C13.6031125 565.35551977 10.25288916 565.35327009 6.90234375 565.35351562 C4.74739348 565.34859908 2.59244505 565.34277016 0.4375 565.3359375 C-0.55133179 565.33482468 -1.54016357 565.33371185 -2.55895996 565.33256531 C-18.79559916 565.22329417 -18.79559916 565.22329417 -22.90625 563.16796875 C-24.60679376 562.901926 -26.31411327 562.67864793 -28.0234375 562.4765625 C-51.62628359 559.47790593 -73.9422314 553.49644416 -95.79736328 544.07324219 C-97.76130941 543.23018682 -99.73428479 542.41636579 -101.71484375 541.61328125 C-128.39013454 530.61009553 -154.00692687 514.03478699 -174.90625 494.16796875 C-176.1712792 493.07786343 -177.4418271 491.99411761 -178.71875 490.91796875 C-188.70597385 482.20483519 -197.77770046 472.62624902 -205.90625 462.16796875 C-206.59203125 461.31203125 -207.2778125 460.45609375 -207.984375 459.57421875 C-210.70809492 456.16403284 -213.31704568 452.68109855 -215.90625 449.16796875 C-216.67453125 448.13285156 -217.4428125 447.09773438 -218.234375 446.03125 C-224.08266958 438.06519492 -229.22026197 429.88054567 -233.90625 421.16796875 C-234.31407715 420.41257812 -234.7219043 419.6571875 -235.14208984 418.87890625 C-236.46674195 416.41664667 -237.78245385 413.94986542 -239.09375 411.48046875 C-239.49787109 410.72096924 -239.90199219 409.96146973 -240.31835938 409.17895508 C-246.34442267 397.70255916 -250.89393933 386.00911952 -254.96875 373.73046875 C-255.23493134 372.93283112 -255.50111267 372.13519348 -255.77536011 371.31338501 C-259.46508643 360.20715416 -262.70802755 349.23339771 -264.48168945 337.640625 C-265.03227171 334.43401366 -265.73986447 331.26713451 -266.421875 328.0859375 C-268.01983578 320.3591896 -268.66558951 312.67151642 -269.09375 304.79296875 C-269.17339899 303.41503307 -269.2531528 302.03710344 -269.33300781 300.65917969 C-270.62861499 277.61068642 -270.47277906 253.92421272 -265.37451172 231.30029297 C-264.82900606 228.81622291 -264.33867715 226.32352739 -263.84765625 223.828125 C-261.17905567 210.55469871 -257.54928499 197.88123503 -252.90625 185.16796875 C-252.46925781 183.94851562 -252.03226563 182.7290625 -251.58203125 181.47265625 C-248.27683149 172.75804546 -244.23976675 164.3816154 -240.21875 155.98046875 C-239.78656158 155.07442902 -239.78656158 155.07442902 -239.34564209 154.15008545 C-238.51316427 152.40996692 -237.6727197 150.67366669 -236.83203125 148.9375 C-236.09593628 147.41539917 -236.09593628 147.41539917 -235.3449707 145.86254883 C-234.03798902 143.41470276 -232.61774938 141.34228847 -230.90625 139.16796875 C-230.17492821 137.86813768 -229.46748852 136.55465493 -228.78125 135.23046875 C-225.62356895 129.45561061 -221.85025465 124.12220609 -218.03955078 118.76708984 C-216.99288007 117.29020635 -215.96247512 115.80183124 -214.93359375 114.3125 C-210.54412459 108.0662944 -205.69883028 102.48137368 -200.484375 96.9296875 C-198.45685949 94.75778831 -196.50936745 92.5617177 -194.59375 90.29296875 C-186.7040148 81.2301794 -178.04920053 72.7569092 -168.6171875 65.31640625 C-166.1718118 63.37842839 -163.79704421 61.37541006 -161.42944336 59.34375 C-156.34946752 55.00553694 -151.16685804 51.21865974 -145.46875 47.73828125 C-143.1608726 46.32400272 -140.94252835 44.83445147 -138.71875 43.29296875 C-126.80235094 35.33459211 -113.95635759 29.02092849 -100.90625 23.16796875 C-99.91625 22.71808594 -98.92625 22.26820312 -97.90625 21.8046875 C-88.93197162 17.89118826 -79.59583792 14.95306615 -70.28857422 11.94628906 C-68.34257299 11.31051822 -66.40607448 10.64572335 -64.47265625 9.97265625 C-54.77059808 6.69998324 -44.71256949 5.27531586 -34.63525391 3.63964844 C-32.03614349 3.19041948 -29.46593859 2.6640442 -26.88671875 2.11328125 C-18.00389561 0.31173417 -9.03971729 0.0107755 0 0 Z " fill="#FECACE" transform="translate(285.90625,16.83203125)"/>
<path d="M0 0 C1.5071759 -0.0049926 1.5071759 -0.0049926 3.0447998 -0.01008606 C5.15909371 -0.01511395 7.27339544 -0.01749568 9.38769531 -0.01733398 C12.55808218 -0.01950681 15.72811255 -0.03766992 18.8984375 -0.05664062 C33.78657935 -0.09865563 48.50807458 0.32766448 63.06137085 3.69923401 C65.48928368 4.25919207 67.92850151 4.72535182 70.37890625 5.17578125 C85.0875791 7.98640433 99.02436276 12.06066241 113.09375 17.16796875 C114.16399414 17.5556543 114.16399414 17.5556543 115.25585938 17.95117188 C141.93794853 27.71556536 167.08155115 42.22525204 189.09375 60.16796875 C190.41246094 61.20050781 190.41246094 61.20050781 191.7578125 62.25390625 C204.56725043 72.4183275 216.34509138 83.85823415 227.09375 96.16796875 C227.55088379 96.68568848 228.00801758 97.2034082 228.47900391 97.73681641 C235.3169857 105.49942354 241.40143457 113.5264918 247.09375 122.16796875 C247.69832031 123.08191406 248.30289063 123.99585938 248.92578125 124.9375 C252.89252708 131.05327292 256.53605804 137.33927394 260.11328125 143.6875 C261.94248869 146.92640471 263.86132083 150.10696915 265.78125 153.29296875 C269.14334195 159.0727448 271.66178947 164.94928706 274.09375 171.16796875 C274.77952492 172.82102921 275.46719189 174.4733054 276.15625 176.125 C285.36408127 198.49195363 290.7662661 220.88845497 293.72412109 244.875 C293.97994626 247.18966867 293.97994626 247.18966867 295.09375 249.16796875 C296.13888662 255.93102073 296.24200499 262.73813747 296.2265625 269.56640625 C296.22751923 270.52261871 296.22847595 271.47883118 296.22946167 272.46401978 C296.23013746 274.47243313 296.22832549 276.48084875 296.22412109 278.48925781 C296.21877625 281.52804585 296.22408062 284.5666853 296.23046875 287.60546875 C296.23884018 309.09493128 296.23884018 309.09493128 295.09375 316.16796875 C294.76375 316.49796875 294.43375 316.82796875 294.09375 317.16796875 C293.81885826 318.89585967 293.59935589 320.63260052 293.40234375 322.37109375 C290.2540064 348.16763094 283.84821278 372.45424576 273.09375 396.16796875 C272.68866211 397.07015137 272.28357422 397.97233398 271.86621094 398.90185547 C266.63938431 410.46094782 260.87836192 421.45340238 254.09375 432.16796875 C253.25457031 433.55435547 253.25457031 433.55435547 252.3984375 434.96875 C247.19950332 443.44527313 241.16915532 451.30886273 235.09375 459.16796875 C234.35253906 460.12703125 233.61132812 461.08609375 232.84765625 462.07421875 C219.81153782 478.43713489 204.87703581 493.70077039 187.84863281 505.90185547 C185.841848 507.34971107 183.85478279 508.82279352 181.8671875 510.296875 C172.57477937 517.15298121 163.18659058 523.55069759 153.09375 529.16796875 C152.37106934 529.57112305 151.64838867 529.97427734 150.90380859 530.38964844 C134.00261517 539.73252188 116.43827633 547.15911931 98.09375 553.16796875 C97.00707031 553.52503906 95.92039062 553.88210938 94.80078125 554.25 C87.10437427 556.60298192 79.2873763 558.24913556 71.40625 559.85546875 C70.36082031 560.07017822 69.31539063 560.2848877 68.23828125 560.50610352 C62.505135 561.63852658 56.87882826 562.476913 51.04370117 562.83520508 C48.43817087 563.129117 46.02283436 563.6149269 43.46801758 564.18359375 C37.86279806 565.33371789 32.456087 565.43990176 26.75 565.3984375 C25.70026001 565.39797928 24.65052002 565.39752106 23.56896973 565.39704895 C21.36383931 565.39404672 19.15871063 565.38622195 16.95361328 565.3737793 C13.6031125 565.35551977 10.25288916 565.35327009 6.90234375 565.35351562 C4.74739348 565.34859908 2.59244505 565.34277016 0.4375 565.3359375 C-0.55133179 565.33482468 -1.54016357 565.33371185 -2.55895996 565.33256531 C-18.79559916 565.22329417 -18.79559916 565.22329417 -22.90625 563.16796875 C-24.60679376 562.901926 -26.31411327 562.67864793 -28.0234375 562.4765625 C-51.62628359 559.47790593 -73.9422314 553.49644416 -95.79736328 544.07324219 C-97.76130941 543.23018682 -99.73428479 542.41636579 -101.71484375 541.61328125 C-128.39013454 530.61009553 -154.00692687 514.03478699 -174.90625 494.16796875 C-176.1712792 493.07786343 -177.4418271 491.99411761 -178.71875 490.91796875 C-188.70597385 482.20483519 -197.77770046 472.62624902 -205.90625 462.16796875 C-206.59203125 461.31203125 -207.2778125 460.45609375 -207.984375 459.57421875 C-210.70809492 456.16403284 -213.31704568 452.68109855 -215.90625 449.16796875 C-216.67453125 448.13285156 -217.4428125 447.09773438 -218.234375 446.03125 C-224.08266958 438.06519492 -229.22026197 429.88054567 -233.90625 421.16796875 C-234.31407715 420.41257812 -234.7219043 419.6571875 -235.14208984 418.87890625 C-236.46674195 416.41664667 -237.78245385 413.94986542 -239.09375 411.48046875 C-239.49787109 410.72096924 -239.90199219 409.96146973 -240.31835938 409.17895508 C-246.34442267 397.70255916 -250.89393933 386.00911952 -254.96875 373.73046875 C-255.23493134 372.93283112 -255.50111267 372.13519348 -255.77536011 371.31338501 C-259.46508643 360.20715416 -262.70802755 349.23339771 -264.48168945 337.640625 C-265.03227171 334.43401366 -265.73986447 331.26713451 -266.421875 328.0859375 C-268.01983578 320.3591896 -268.66558951 312.67151642 -269.09375 304.79296875 C-269.17339899 303.41503307 -269.2531528 302.03710344 -269.33300781 300.65917969 C-270.62861499 277.61068642 -270.47277906 253.92421272 -265.37451172 231.30029297 C-264.82900606 228.81622291 -264.33867715 226.32352739 -263.84765625 223.828125 C-261.17905567 210.55469871 -257.54928499 197.88123503 -252.90625 185.16796875 C-252.46925781 183.94851562 -252.03226563 182.7290625 -251.58203125 181.47265625 C-248.27683149 172.75804546 -244.23976675 164.3816154 -240.21875 155.98046875 C-239.78656158 155.07442902 -239.78656158 155.07442902 -239.34564209 154.15008545 C-238.51316427 152.40996692 -237.6727197 150.67366669 -236.83203125 148.9375 C-236.09593628 147.41539917 -236.09593628 147.41539917 -235.3449707 145.86254883 C-234.03798902 143.41470276 -232.61774938 141.34228847 -230.90625 139.16796875 C-230.17492821 137.86813768 -229.46748852 136.55465493 -228.78125 135.23046875 C-225.62356895 129.45561061 -221.85025465 124.12220609 -218.03955078 118.76708984 C-216.99288007 117.29020635 -215.96247512 115.80183124 -214.93359375 114.3125 C-210.54412459 108.0662944 -205.69883028 102.48137368 -200.484375 96.9296875 C-198.45685949 94.75778831 -196.50936745 92.5617177 -194.59375 90.29296875 C-186.7040148 81.2301794 -178.04920053 72.7569092 -168.6171875 65.31640625 C-166.1718118 63.37842839 -163.79704421 61.37541006 -161.42944336 59.34375 C-156.34946752 55.00553694 -151.16685804 51.21865974 -145.46875 47.73828125 C-143.1608726 46.32400272 -140.94252835 44.83445147 -138.71875 43.29296875 C-126.80235094 35.33459211 -113.95635759 29.02092849 -100.90625 23.16796875 C-99.91625 22.71808594 -98.92625 22.26820312 -97.90625 21.8046875 C-88.93197162 17.89118826 -79.59583792 14.95306615 -70.28857422 11.94628906 C-68.34257299 11.31051822 -66.40607448 10.64572335 -64.47265625 9.97265625 C-54.77059808 6.69998324 -44.71256949 5.27531586 -34.63525391 3.63964844 C-32.03614349 3.19041948 -29.46593859 2.6640442 -26.88671875 2.11328125 C-18.00389561 0.31173417 -9.03971729 0.0107755 0 0 Z M-17.75390625 34.90332031 C-19.78977982 35.15364778 -21.83251734 35.3461864 -23.875 35.53515625 C-67.10449338 39.84053262 -108.13289616 60.74777846 -141.90625 87.16796875 C-142.44540039 87.5870752 -142.98455078 88.00618164 -143.54003906 88.43798828 C-159.76974521 101.19285945 -174.87860516 116.3862275 -186.90625 133.16796875 C-187.54175781 134.03164062 -188.17726562 134.8953125 -188.83203125 135.78515625 C-193.55751375 142.34425169 -197.78487548 149.2176434 -201.90625 156.16796875 C-202.27008789 156.77914551 -202.63392578 157.39032227 -203.00878906 158.02001953 C-225.07712066 195.35978998 -236.08876891 237.76832103 -236.21875 281.04296875 C-236.22136841 281.8782309 -236.22398682 282.71349304 -236.22668457 283.57406616 C-236.23380093 304.88986149 -233.43688539 325.56635193 -227.90625 346.16796875 C-227.5040625 347.71097656 -227.5040625 347.71097656 -227.09375 349.28515625 C-226.3926295 351.92166146 -225.65735254 354.54533446 -224.90625 357.16796875 C-224.68324219 357.98265625 -224.46023437 358.79734375 -224.23046875 359.63671875 C-216.51438749 386.88008945 -201.45099024 413.09244394 -183.90625 435.16796875 C-183.20242187 436.06386719 -182.49859375 436.95976562 -181.7734375 437.8828125 C-175.83264849 445.30347547 -169.44224531 452.27380465 -162.90625 459.16796875 C-161.83890625 460.29912109 -161.83890625 460.29912109 -160.75 461.453125 C-155.52270606 466.84109396 -149.76414243 471.48662614 -143.90625 476.16796875 C-142.77123047 477.12123047 -142.77123047 477.12123047 -141.61328125 478.09375 C-118.02954335 497.69950801 -89.31187286 512.61335283 -59.90625 521.16796875 C-59.08833984 521.40999023 -58.27042969 521.65201172 -57.42773438 521.90136719 C-38.63943286 527.41251147 -19.86033272 531.26697988 -0.21875 531.37109375 C0.67386032 531.37806274 1.56647064 531.38503174 2.48612976 531.39221191 C5.35538501 531.40951636 8.22444472 531.41593287 11.09375 531.41796875 C12.07429352 531.41897583 13.05483704 531.41998291 14.06509399 531.42102051 C29.58826391 531.41024262 44.76717878 530.8604745 60.09375 528.16796875 C60.84333984 528.03938477 61.59292969 527.91080078 62.36523438 527.77832031 C98.48683128 521.23648272 133.89706136 504.13553486 163.09375 482.16796875 C164.04701172 481.46027344 164.04701172 481.46027344 165.01953125 480.73828125 C182.32155785 467.7707168 199.31261211 451.53735638 211.87353516 433.87109375 C213.20100279 432.01826978 214.57318486 430.20372457 215.94921875 428.38671875 C237.98858211 398.79889137 252.969188 362.48218482 259.09375 326.16796875 C259.27957138 325.10109329 259.27957138 325.10109329 259.46914673 324.01266479 C261.90816489 309.75211561 262.61891258 295.80778196 262.53125 281.35546875 C262.52718643 279.77697647 262.52718643 279.77697647 262.52304077 278.16659546 C262.46294726 262.7646719 261.71333898 248.18955826 258.09375 233.16796875 C257.71232198 231.38753365 257.33477922 229.60626219 256.9609375 227.82421875 C248.0087573 186.40435887 228.27543504 147.05240805 199.09375 116.16796875 C197.92145322 114.81867311 196.75459179 113.46463203 195.59375 112.10546875 C189.30440295 104.9010435 182.43598642 98.28849536 175.09375 92.16796875 C174.58634277 91.7414502 174.07893555 91.31493164 173.55615234 90.87548828 C140.72004187 63.41307375 101.91669311 45.68286251 60.09375 37.16796875 C59.21920166 36.98234375 58.34465332 36.79671875 57.44360352 36.60546875 C32.97899585 31.4973438 6.94660812 31.72478792 -17.75390625 34.90332031 Z " fill="#68202A" transform="translate(285.90625,16.83203125)"/>
<path d="M0 0 C10.0627082 4.53808409 15.28836766 16.23902213 19 26 C19.99479857 28.95846818 20.89392911 31.93612954 21.75 34.9375 C21.94867676 35.6277124 22.14735352 36.3179248 22.35205078 37.02905273 C25.74172947 49.65974493 26.32449429 62.16650981 26.26074219 75.15722656 C26.25007182 77.73266452 26.26067333 80.30739625 26.2734375 82.8828125 C26.28804055 97.61948655 25.77408403 112.46027845 21.125 126.5625 C20.88136719 127.35978516 20.63773437 128.15707031 20.38671875 128.97851562 C16.85985585 140.20782782 12.1887732 152.07023025 2.14453125 158.96484375 C-1.61512744 160.77961525 -4.95374456 160.86058418 -9 160 C-18.50270082 155.43870361 -23.29654901 146.39411959 -27 137 C-27.53947266 135.68515625 -27.53947266 135.68515625 -28.08984375 134.34375 C-41.46616133 100.01961433 -40.2522688 53.92875834 -26.17089844 20.00244141 C-20.72910363 7.89365238 -14.00719108 -1.47216228 0 0 Z " fill="#681F2A" transform="translate(240,138)"/>
<path d="M0 0 C10.46923317 4.81217384 15.5348747 16.86414165 19.32714844 27.02294922 C21.42869508 33.1979582 22.80134172 39.59634518 24 46 C24.17877686 46.89485107 24.35755371 47.78970215 24.54174805 48.71166992 C26.20491332 57.97872313 26.33883162 67.12497987 26.31567383 76.5090332 C26.31252554 79.16594999 26.3360161 81.82173643 26.36132812 84.47851562 C26.44652602 107.63074253 23.01752102 138.63200372 6 156 C2.5697196 159.12536659 -0.20356063 160.33019442 -4.75 160.8125 C-10.50515493 160.52690585 -13.69394081 157.86621452 -17.67578125 153.890625 C-21.81850456 148.73833046 -24.45428616 143.04436868 -27 137 C-27.39960938 136.0821875 -27.79921875 135.164375 -28.2109375 134.21875 C-31.32960474 126.4338062 -32.74357076 118.25745603 -34 110 C-34.17136475 108.90252441 -34.34272949 107.80504883 -34.51928711 106.67431641 C-35.83142924 97.69366668 -36.35223603 88.95784918 -36.3125 79.875 C-36.31067719 79.20601685 -36.30885437 78.53703369 -36.30697632 77.84777832 C-36.25314255 66.02398986 -35.3990828 54.58454745 -33 43 C-32.83371094 42.18112305 -32.66742188 41.36224609 -32.49609375 40.51855469 C-29.35462937 25.65477415 -24.33151931 10.78416321 -12 1 C-8.21866404 -0.89066798 -4.10920209 -0.61457275 0 0 Z " fill="#681F2A" transform="translate(368,138)"/>
<path d="M0 0 C1.5071759 -0.0049926 1.5071759 -0.0049926 3.0447998 -0.01008606 C5.15909371 -0.01511395 7.27339544 -0.01749568 9.38769531 -0.01733398 C12.55808218 -0.01950681 15.72811255 -0.03766992 18.8984375 -0.05664062 C33.78657935 -0.09865563 48.50807458 0.32766448 63.06137085 3.69923401 C65.48928368 4.25919207 67.92850151 4.72535182 70.37890625 5.17578125 C85.0875791 7.98640433 99.02436276 12.06066241 113.09375 17.16796875 C114.16399414 17.5556543 114.16399414 17.5556543 115.25585938 17.95117188 C141.93794853 27.71556536 167.08155115 42.22525204 189.09375 60.16796875 C190.41246094 61.20050781 190.41246094 61.20050781 191.7578125 62.25390625 C204.56725043 72.4183275 216.34509138 83.85823415 227.09375 96.16796875 C227.55088379 96.68568848 228.00801758 97.2034082 228.47900391 97.73681641 C235.3169857 105.49942354 241.40143457 113.5264918 247.09375 122.16796875 C247.69832031 123.08191406 248.30289063 123.99585938 248.92578125 124.9375 C252.89252708 131.05327292 256.53605804 137.33927394 260.11328125 143.6875 C261.94248869 146.92640471 263.86132083 150.10696915 265.78125 153.29296875 C269.14334195 159.0727448 271.66178947 164.94928706 274.09375 171.16796875 C274.77952492 172.82102921 275.46719189 174.4733054 276.15625 176.125 C285.36408127 198.49195363 290.7662661 220.88845497 293.72412109 244.875 C293.97994626 247.18966867 293.97994626 247.18966867 295.09375 249.16796875 C296.13888662 255.93102073 296.24200499 262.73813747 296.2265625 269.56640625 C296.22751923 270.52261871 296.22847595 271.47883118 296.22946167 272.46401978 C296.23013746 274.47243313 296.22832549 276.48084875 296.22412109 278.48925781 C296.21877625 281.52804585 296.22408062 284.5666853 296.23046875 287.60546875 C296.23884018 309.09493128 296.23884018 309.09493128 295.09375 316.16796875 C294.76375 316.49796875 294.43375 316.82796875 294.09375 317.16796875 C293.81885826 318.89585967 293.59935589 320.63260052 293.40234375 322.37109375 C290.2540064 348.16763094 283.84821278 372.45424576 273.09375 396.16796875 C272.68866211 397.07015137 272.28357422 397.97233398 271.86621094 398.90185547 C266.63938431 410.46094782 260.87836192 421.45340238 254.09375 432.16796875 C253.25457031 433.55435547 253.25457031 433.55435547 252.3984375 434.96875 C247.19950332 443.44527313 241.16915532 451.30886273 235.09375 459.16796875 C234.35253906 460.12703125 233.61132812 461.08609375 232.84765625 462.07421875 C219.81153782 478.43713489 204.87703581 493.70077039 187.84863281 505.90185547 C185.841848 507.34971107 183.85478279 508.82279352 181.8671875 510.296875 C172.57477937 517.15298121 163.18659058 523.55069759 153.09375 529.16796875 C152.37106934 529.57112305 151.64838867 529.97427734 150.90380859 530.38964844 C134.00261517 539.73252188 116.43827633 547.15911931 98.09375 553.16796875 C97.00707031 553.52503906 95.92039062 553.88210938 94.80078125 554.25 C87.10437427 556.60298192 79.2873763 558.24913556 71.40625 559.85546875 C70.36082031 560.07017822 69.31539063 560.2848877 68.23828125 560.50610352 C62.505135 561.63852658 56.87882826 562.476913 51.04370117 562.83520508 C48.43817087 563.129117 46.02283436 563.6149269 43.46801758 564.18359375 C37.86279806 565.33371789 32.456087 565.43990176 26.75 565.3984375 C25.70026001 565.39797928 24.65052002 565.39752106 23.56896973 565.39704895 C21.36383931 565.39404672 19.15871063 565.38622195 16.95361328 565.3737793 C13.6031125 565.35551977 10.25288916 565.35327009 6.90234375 565.35351562 C4.74739348 565.34859908 2.59244505 565.34277016 0.4375 565.3359375 C-0.55133179 565.33482468 -1.54016357 565.33371185 -2.55895996 565.33256531 C-18.79559916 565.22329417 -18.79559916 565.22329417 -22.90625 563.16796875 C-24.60679376 562.901926 -26.31411327 562.67864793 -28.0234375 562.4765625 C-51.62628359 559.47790593 -73.9422314 553.49644416 -95.79736328 544.07324219 C-97.76130941 543.23018682 -99.73428479 542.41636579 -101.71484375 541.61328125 C-128.39013454 530.61009553 -154.00692687 514.03478699 -174.90625 494.16796875 C-176.1712792 493.07786343 -177.4418271 491.99411761 -178.71875 490.91796875 C-188.70597385 482.20483519 -197.77770046 472.62624902 -205.90625 462.16796875 C-206.59203125 461.31203125 -207.2778125 460.45609375 -207.984375 459.57421875 C-210.70809492 456.16403284 -213.31704568 452.68109855 -215.90625 449.16796875 C-216.67453125 448.13285156 -217.4428125 447.09773438 -218.234375 446.03125 C-224.08266958 438.06519492 -229.22026197 429.88054567 -233.90625 421.16796875 C-234.31407715 420.41257812 -234.7219043 419.6571875 -235.14208984 418.87890625 C-236.46674195 416.41664667 -237.78245385 413.94986542 -239.09375 411.48046875 C-239.49787109 410.72096924 -239.90199219 409.96146973 -240.31835938 409.17895508 C-246.34442267 397.70255916 -250.89393933 386.00911952 -254.96875 373.73046875 C-255.23493134 372.93283112 -255.50111267 372.13519348 -255.77536011 371.31338501 C-259.46508643 360.20715416 -262.70802755 349.23339771 -264.48168945 337.640625 C-265.03227171 334.43401366 -265.73986447 331.26713451 -266.421875 328.0859375 C-268.01983578 320.3591896 -268.66558951 312.67151642 -269.09375 304.79296875 C-269.17339899 303.41503307 -269.2531528 302.03710344 -269.33300781 300.65917969 C-270.62861499 277.61068642 -270.47277906 253.92421272 -265.37451172 231.30029297 C-264.82900606 228.81622291 -264.33867715 226.32352739 -263.84765625 223.828125 C-261.17905567 210.55469871 -257.54928499 197.88123503 -252.90625 185.16796875 C-252.46925781 183.94851562 -252.03226563 182.7290625 -251.58203125 181.47265625 C-248.27683149 172.75804546 -244.23976675 164.3816154 -240.21875 155.98046875 C-239.78656158 155.07442902 -239.78656158 155.07442902 -239.34564209 154.15008545 C-238.51316427 152.40996692 -237.6727197 150.67366669 -236.83203125 148.9375 C-236.09593628 147.41539917 -236.09593628 147.41539917 -235.3449707 145.86254883 C-234.03798902 143.41470276 -232.61774938 141.34228847 -230.90625 139.16796875 C-230.17492821 137.86813768 -229.46748852 136.55465493 -228.78125 135.23046875 C-225.62356895 129.45561061 -221.85025465 124.12220609 -218.03955078 118.76708984 C-216.99288007 117.29020635 -215.96247512 115.80183124 -214.93359375 114.3125 C-210.54412459 108.0662944 -205.69883028 102.48137368 -200.484375 96.9296875 C-198.45685949 94.75778831 -196.50936745 92.5617177 -194.59375 90.29296875 C-186.7040148 81.2301794 -178.04920053 72.7569092 -168.6171875 65.31640625 C-166.1718118 63.37842839 -163.79704421 61.37541006 -161.42944336 59.34375 C-156.34946752 55.00553694 -151.16685804 51.21865974 -145.46875 47.73828125 C-143.1608726 46.32400272 -140.94252835 44.83445147 -138.71875 43.29296875 C-126.80235094 35.33459211 -113.95635759 29.02092849 -100.90625 23.16796875 C-99.91625 22.71808594 -98.92625 22.26820312 -97.90625 21.8046875 C-88.93197162 17.89118826 -79.59583792 14.95306615 -70.28857422 11.94628906 C-68.34257299 11.31051822 -66.40607448 10.64572335 -64.47265625 9.97265625 C-54.77059808 6.69998324 -44.71256949 5.27531586 -34.63525391 3.63964844 C-32.03614349 3.19041948 -29.46593859 2.6640442 -26.88671875 2.11328125 C-18.00389561 0.31173417 -9.03971729 0.0107755 0 0 Z M-29.90625 4.16796875 C-31.23317871 4.38477295 -31.23317871 4.38477295 -32.58691406 4.60595703 C-80.3826932 12.4961926 -125.30671102 32.63308593 -162.90625 63.16796875 C-163.42509766 63.58385254 -163.94394531 63.99973633 -164.47851562 64.42822266 C-172.68751836 71.05105362 -180.23897552 78.2998688 -187.71875 85.73046875 C-189.02585938 87.02368042 -189.02585938 87.02368042 -190.359375 88.34301758 C-196.29624461 94.30869049 -201.67953469 100.57536649 -206.90625 107.16796875 C-207.78739603 108.25159848 -208.66883026 109.33499406 -209.55078125 110.41796875 C-227.94635415 133.75217294 -241.71463365 160.35034169 -251.90625 188.16796875 C-252.21143555 188.98990723 -252.51662109 189.8118457 -252.83105469 190.65869141 C-259.37223667 208.46440601 -263.17118932 227.02203608 -265.59765625 245.8046875 C-265.88866931 248.03333183 -266.20883267 250.25619729 -266.53125 252.48046875 C-275.94289659 322.32686777 -253.64761216 394.50388457 -212.21875 450.60546875 C-210.79150345 452.46753952 -209.35433557 454.32205747 -207.90625 456.16796875 C-207.20242187 457.06515625 -206.49859375 457.96234375 -205.7734375 458.88671875 C-193.91316047 473.68018257 -180.75685676 487.375402 -165.90625 499.16796875 C-164.73693227 500.12595997 -163.569031 501.085682 -162.40234375 502.046875 C-131.44716304 527.42399344 -95.41978636 544.6650098 -56.90625 555.16796875 C-56.19049805 555.36374512 -55.47474609 555.55952148 -54.73730469 555.76123047 C-42.63807128 558.99957134 -30.34079574 560.76530737 -17.90625 562.16796875 C-17.17866486 562.25162689 -16.45107971 562.33528503 -15.70144653 562.42147827 C-9.81332865 563.06101866 -3.99878507 563.34018368 1.921875 563.37109375 C2.82524094 563.37806274 3.72860687 563.38503174 4.65934753 563.39221191 C7.5541964 563.40949302 10.44885172 563.41593045 13.34375 563.41796875 C14.33206818 563.41897583 15.32038635 563.41998291 16.33865356 563.42102051 C29.63323316 563.41184057 42.65132564 563.18871677 55.74121094 560.62548828 C58.26132624 560.13537869 60.78770614 559.70961115 63.3203125 559.2890625 C128.55167654 548.11865411 191.42231895 511.70500996 232.09375 459.16796875 C232.95736102 458.10361927 233.82337678 457.04121785 234.69140625 455.98046875 C255.58968546 430.25437557 270.4802189 400.43567259 281.09375 369.16796875 C281.34640625 368.4291748 281.5990625 367.69038086 281.859375 366.92919922 C291.24251341 339.20332844 294.47245725 310.57119312 294.46875 281.41796875 C294.47056274 280.50001526 294.47237549 279.58206177 294.47424316 278.6362915 C294.47208394 268.99385122 294.17690738 259.43605896 293.1953125 249.83984375 C293.11832123 249.08253967 293.04132996 248.3252356 292.96200562 247.54498291 C292.4009428 242.61063277 291.35387735 237.9706354 290.09375 233.16796875 C289.80783635 231.68522117 289.54023735 230.19860869 289.3046875 228.70703125 C281.0747086 179.72311905 257.2223372 130.8279553 222.703125 94.890625 C220.52555061 92.61851519 218.44793456 90.31086051 216.40625 87.91796875 C210.15955733 80.73803524 203.38741687 74.40776771 195.953125 68.47265625 C194.06166612 66.94811972 192.19608727 65.3908493 190.359375 63.80078125 C152.70579762 31.24395882 103.80580522 11.94784362 55.09375 4.16796875 C54.19543457 4.01553711 53.29711914 3.86310547 52.37158203 3.70605469 C25.41706208 -0.78879233 -3.00284073 -0.46424266 -29.90625 4.16796875 Z " fill="#F7F1F1" transform="translate(285.90625,16.83203125)"/>
<path d="M0 0 C0.92039063 -0.01160156 1.84078125 -0.02320313 2.7890625 -0.03515625 C13.32381065 0.00935677 25.29842212 2.98441728 33.1484375 10.40625 C37.73979414 15.57855381 39.36106717 18.27401239 39 25.375 C38 28.3125 38 28.3125 37 30.375 C36.34 30.375 35.68 30.375 35 30.375 C34.73316406 30.98472656 34.46632813 31.59445312 34.19140625 32.22265625 C30.52007084 38.85513431 21.38949424 40.86542314 14.56762695 42.8359375 C-0.71353911 46.8803162 -16.49209986 43.82354082 -30.375 36.625 C-34.43816016 33.14229129 -37.46369976 29.41066172 -38.4140625 24.03125 C-38.58552474 19.35500708 -38.07281034 16.0623724 -35 12.375 C-25.31874626 3.14403713 -13.14645834 -0.16571166 0 0 Z " fill="#FD7074" transform="translate(157,281.625)"/>
<path d="M0 0 C1.50390625 1.4296875 1.50390625 1.4296875 2.50390625 4.4296875 C3.16390625 4.4296875 3.82390625 4.4296875 4.50390625 4.4296875 C6.26677487 9.71829337 6.41510748 14.57083698 3.94140625 19.6171875 C-3.45998558 28.157255 -12.28350249 32.53085297 -23.62109375 34.2421875 C-24.89984375 34.3040625 -26.17859375 34.3659375 -27.49609375 34.4296875 C-28.37265625 34.47996094 -29.24921875 34.53023438 -30.15234375 34.58203125 C-44.04087829 35.03889094 -56.78761228 31.87964139 -67.55859375 22.8671875 C-70.66852505 18.95469328 -71.72087402 16.09662957 -71.55859375 11.1171875 C-70.70627262 5.41610616 -67.90190962 2.00705936 -63.49609375 -1.5703125 C-44.31330778 -13.56953091 -18.59972776 -13.05863239 0 0 Z " fill="#FD7074" transform="translate(471.49609375,291.5703125)"/>
<path d="M0 0 C4.10219771 1.81259899 6.76415359 4.10797107 9 8 C8.949588 9.52356272 8.83822033 11.04557281 8.6875 12.5625 C8.35432258 20.00346248 13.32634761 24.6972021 18 30 C18.928125 31.05960937 18.928125 31.05960937 19.875 32.140625 C26.16483366 38.83813306 33.50148691 43.45014869 42.75 44.375 C53.06279362 44.00248464 60.09385887 38.10252429 67 31 C67.86753906 30.15050781 68.73507812 29.30101562 69.62890625 28.42578125 C74.34262108 23.37273797 76.52698058 20.16314051 76.3125 13.125 C76.18488281 12.07570313 76.05726563 11.02640625 75.92578125 9.9453125 C76.02293447 6.08986365 77.36369705 4.71838565 80 2 C83.48664451 -0.52481154 86.79751118 -0.43474022 91 0 C94.70390021 2.02666238 96.65363011 3.48044516 99 7 C99.67869535 11.65616577 99.70297351 15.70652875 97.4375 19.875 C95 22 95 22 91.8125 23.5625 C88.09479956 25.52001531 86.18882145 28.17694465 83.75 31.5625 C75.23957573 43.30545517 64.82551491 54.59037586 49.89746094 57.39501953 C37.03748263 58.83224063 26.68358386 54.93536724 16.5625 47.12890625 C9.19718791 41.00985886 3.13560726 34.1131668 -2 26 C-2 25.34 -2 24.68 -2 24 C-3.051875 23.938125 -4.10375 23.87625 -5.1875 23.8125 C-9.66337256 22.85862552 -11.12282867 21.46953013 -14 18 C-15.63125565 14.7374887 -15.68851113 11.5120384 -15 8 C-11.02622012 1.59304414 -7.59384259 -0.51483679 0 0 Z " fill="#681F2A" transform="translate(257,315)"/>
<path d="M0 0 C6.38890268 3.25708764 9.37319019 7.87973878 11.6875 14.5 C15.91267972 27.52960449 15.05556419 41.37659738 10 54 C7.46174678 58.87290325 5.25179982 62.89515292 0 65 C-3.01948391 65.53679714 -5.01584867 65.51384893 -7.765625 64.078125 C-14.43961483 59.14517599 -17.31392404 50.90949305 -19 43 C-19.24629247 39.46159819 -19.23116265 35.9211319 -19.25 32.375 C-19.2809375 30.95380859 -19.2809375 30.95380859 -19.3125 29.50390625 C-19.37168938 18.68704639 -16.64023231 9.0162478 -9.125 1 C-5.88187885 -0.52617466 -3.53989369 -0.42722855 0 0 Z " fill="#FBFAFA" transform="translate(366,149)"/>
<path d="M0 0 C4.59655874 1.18828873 6.94401904 3.90561086 9.359375 7.74609375 C15.78247512 19.76833945 16.92785108 33.74514919 13.76953125 47.0234375 C11.75696235 53.10906252 9.27156833 60.30416262 3.94921875 64.25390625 C0.44212324 65.71519604 -1.3055938 66.26823022 -5.05078125 65.50390625 C-12.20257686 61.72140101 -14.58715648 54.81333842 -17.05078125 47.50390625 C-20.44720821 35.65949075 -19.20325104 19.12160896 -13.23828125 8.33203125 C-9.79286793 3.02790812 -6.72407465 -0.60196478 0 0 Z " fill="#FCFAFA" transform="translate(237.05078125,148.49609375)"/>
<path d="M0 0 C8.05457186 4.75013212 14.18904776 11.88837101 20.2109375 18.94140625 C21.43598235 20.35101026 22.69329547 21.7330298 23.9765625 23.08984375 C37.19503748 37.14949441 47.58365683 53.76959389 57.01953125 70.51953125 C58.84873869 73.75843596 60.76757083 76.9390004 62.6875 80.125 C65.67432837 85.25966001 68.06109687 90.43509904 70.20458984 95.97021484 C71.19419958 98.49557253 72.21750107 101.00661436 73.23828125 103.51953125 C74.05548798 105.5543662 74.87188582 107.58952619 75.6875 109.625 C76.27700439 111.07386597 76.27700439 111.07386597 76.87841797 112.55200195 C79.28782803 118.63677451 80.96614548 124.53553987 82 131 C81.34 131.33 80.68 131.66 80 132 C79.78496826 131.30777344 79.56993652 130.61554688 79.34838867 129.90234375 C69.61688129 98.89226092 56.22015801 70.30428177 37 44 C36.37013184 43.1347168 36.37013184 43.1347168 35.72753906 42.25195312 C30.40586528 34.99852422 24.67591728 28.26773779 18.52734375 21.7109375 C16.42055126 19.45110136 14.38318358 17.1592457 12.375 14.8125 C9.04133283 10.94349942 5.40836582 7.41469446 1.72265625 3.8828125 C0 2 0 2 0 0 Z " fill="#F7F1F1" transform="translate(489,90)"/>
<path d="M0 0 C8.77891696 -0.41774896 16.96930206 0.63795976 25.5456543 2.39868164 C27.56144211 2.81228294 29.5799547 3.20927551 31.59960938 3.60351562 C39.16050195 5.09896115 46.59615007 6.85988847 54 9 C55.45693526 9.40399215 56.91396096 9.80765837 58.37109375 10.2109375 C81.51774232 16.77661349 81.51774232 16.77661349 85 22 C78.75982041 20.18568596 72.59682401 18.20589418 66.45117188 16.09448242 C55.73204154 12.42389234 45.10411354 9.24345037 34 7 C33.34128906 6.86255371 32.68257813 6.72510742 32.00390625 6.58349609 C23.48036462 4.8160658 14.9874802 3.52044533 6.31835938 2.73388672 C4.5376639 2.55573294 2.7665365 2.28629343 1 2 C0.67 1.34 0.34 0.68 0 0 Z " fill="#E9E1E3" transform="translate(323,18)"/>
<path d="M0 0 C-12.62077919 7.94141721 -28.39332913 10.78722723 -42.8125 13.8125 C-44.40505615 14.15945923 -44.40505615 14.15945923 -46.02978516 14.51342773 C-52.40125008 15.80440099 -57.58215759 16.09311213 -64 15 C-64 14.67 -64 14.34 -64 14 C-63.33806641 13.91548584 -62.67613281 13.83097168 -61.99414062 13.74389648 C-42.36945381 11.16587715 -23.73893535 6.95807273 -5.31030273 -0.34570312 C-3 -1 -3 -1 0 0 Z " fill="#F4EEEE" transform="translate(400,563)"/>
<path d="M0 0 C0.33 0 0.66 0 1 0 C2.11221551 16.09623004 -1.74369056 32.26412824 -6 47.6875 C-6.2367041 48.56599609 -6.4734082 49.44449219 -6.71728516 50.34960938 C-8.03772149 54.88653908 -9.1403478 57.98048761 -13 61 C-10.28256785 49.60991204 -10.28256785 49.60991204 -8.5625 44.875 C-3.62594793 30.42718532 -1.84321285 15.08121848 0 0 Z " fill="#EDE1E2" transform="translate(578,330)"/>
<path d="M0 0 C1.5798895 3.159779 0.10646841 6.10126463 -0.75 9.375 C-3.83553811 21.75335825 -5.44982841 34.35233835 -7 47 C-7.33 47 -7.66 47 -8 47 C-9.5169404 38.37354376 -8.35874062 30.69117374 -6.49121094 22.23681641 C-5.96549653 19.8428823 -5.47005698 17.4437401 -4.9765625 15.04296875 C-4.63155999 13.40336084 -4.28523303 11.76403099 -3.9375 10.125 C-3.69447144 8.95602173 -3.69447144 8.95602173 -3.4465332 7.76342773 C-2.23152138 2.23152138 -2.23152138 2.23152138 0 0 Z " fill="#F9F4F4" transform="translate(27,226)"/>
<path d="M0 0 C0.99 0.33 1.98 0.66 3 1 C0.03 3.475 0.03 3.475 -3 6 C-2.65555119 8.47266765 -2.65555119 8.47266765 -2 11 C-1.34 11.33 -0.68 11.66 0 12 C-1.49836105 15.11198065 -3.19933758 18.0534615 -5 21 C-7.07041907 16.85916187 -8.06827352 14.45784671 -7.9375 9.75 C-6.48539352 5.49048764 -3.28152584 2.97307955 0 0 Z " fill="#621924" transform="translate(227,140)"/>
<path d="M0 0 C1.670625 0.495 1.670625 0.495 3.375 1 C6.69459717 2.088643 6.69459717 2.088643 9 2 C9.20625 2.886875 9.4125 3.77375 9.625 4.6875 C11.38035804 8.9163171 13.43599059 10.21077524 17 13 C17 13.66 17 14.32 17 15 C17.99 15 18.98 15 20 15 C19.67 16.32 19.34 17.64 19 19 C14.27100612 15.13082319 9.88730678 10.99697964 5.5625 6.6875 C5.01819336 6.14770508 4.47388672 5.60791016 3.91308594 5.05175781 C0 1.12372693 0 1.12372693 0 0 Z " fill="#75313D" transform="translate(91,488)"/>
<path d="M0 0 C2 1 2 1 2.67016602 2.91430664 C2.86280029 3.73793701 3.05543457 4.56156738 3.25390625 5.41015625 C3.46853516 6.31830078 3.68316406 7.22644531 3.90429688 8.16210938 C4.12150391 9.11923828 4.33871094 10.07636719 4.5625 11.0625 C4.78357422 11.99255859 5.00464844 12.92261719 5.23242188 13.88085938 C8.72129351 28.87984529 8.72129351 28.87984529 7 35 C6.67 35 6.34 35 6 35 C5.88930176 34.3702124 5.77860352 33.7404248 5.66455078 33.09155273 C5.15516526 30.20618325 4.64012767 27.32184964 4.125 24.4375 C3.95097656 23.44685547 3.77695312 22.45621094 3.59765625 21.43554688 C2.84421172 17.23579123 2.09612598 13.09190971 0.875 9 C-0.04138088 5.85812268 -0.15875924 3.25456436 0 0 Z " fill="#EBE0E1" transform="translate(570,221)"/>
<path d="M0 0 C0.99 0.33 1.98 0.66 3 1 C0.03 3.475 0.03 3.475 -3 6 C-1.84826645 8.46800047 -0.95216435 10.04783565 1 12 C0.04532436 13.62715156 -0.91386848 15.25165346 -1.875 16.875 C-2.40867187 17.77992188 -2.94234375 18.68484375 -3.4921875 19.6171875 C-5 22 -5 22 -7 24 C-7.33 23.01 -7.66 22.02 -8 21 C-7.34 21 -6.68 21 -6 21 C-6 20.39671875 -6 19.7934375 -6 19.171875 C-6 6.11764706 -6 6.11764706 -1.875 1.75 C-1.25625 1.1725 -0.6375 0.595 0 0 Z " fill="#5E1621" transform="translate(355,140)"/>
<path d="M0 0 C2.125 0.375 2.125 0.375 4 1 C1.53846154 6.66153846 1.53846154 6.66153846 -1.1875 8.375 C-1.785625 8.58125 -2.38375 8.7875 -3 9 C-1.02 8.67 0.96 8.34 3 8 C3 8.66 3 9.32 3 10 C2.01 10.66 1.02 11.32 0 12 C-0.66 12.66 -1.32 13.32 -2 14 C-3.65 12.68 -5.3 11.36 -7 10 C-5.20038714 6.12391075 -3.02196594 3.02196594 0 0 Z " fill="#6C232F" transform="translate(358,138)"/>
<path d="M0 0 C0.66 0.33 1.32 0.66 2 1 C-4.6 7.6 -11.2 14.2 -18 21 C-18.33 20.01 -18.66 19.02 -19 18 C-16.39993924 15.37090575 -13.79426043 12.7474503 -11.1875 10.125 C-10.44951172 9.37863281 -9.71152344 8.63226563 -8.95117188 7.86328125 C-8.23896484 7.14785156 -7.52675781 6.43242188 -6.79296875 5.6953125 C-6.1383667 5.03547363 -5.48376465 4.37563477 -4.80932617 3.69580078 C-3 2 -3 2 0 0 Z " fill="#F6F0EF" transform="translate(112,87)"/>
<path d="M0 0 C2 1 2 1 2 1 Z M-4 1 C-2.68 1 -1.36 1 0 1 C0 1.66 0 2.32 0 3 C0.66 3 1.32 3 2 3 C2 2.34 2 1.68 2 1 C3.32 1.33 4.64 1.66 6 2 C3.54429825 3.33838733 1.08570084 4.67086232 -1.375 6 C-2.42300781 6.57234375 -2.42300781 6.57234375 -3.4921875 7.15625 C-8.7734375 10 -8.7734375 10 -11 10 C-10.34 8.02 -9.68 6.04 -9 4 C-7.68 4.33 -6.36 4.66 -5 5 C-4.67 3.68 -4.34 2.36 -4 1 Z " fill="#6C2732" transform="translate(426,545)"/>
<path d="M0 0 C0 0.33 0 0.66 0 1 C-10.44822209 2.97003514 -20.33134877 4.50892859 -31 4 C-30.67 3.34 -30.34 2.68 -30 2 C-28.20922852 1.58935547 -28.20922852 1.58935547 -25.87890625 1.3671875 C-25.02490234 1.28339844 -24.17089844 1.19960938 -23.29101562 1.11328125 C-22.39060547 1.03464844 -21.49019531 0.95601562 -20.5625 0.875 C-19.69689453 0.78863281 -18.83128906 0.70226562 -17.93945312 0.61328125 C-11.94574848 0.05095304 -6.01776985 -0.10192754 0 0 Z " fill="#FBF9F9" transform="translate(342,578)"/>
<path d="M0 0 C1.32 0 2.64 0 4 0 C4 1.32 4 2.64 4 4 C2.68 4.33 1.36 4.66 0 5 C0 5.99 0 6.98 0 8 C0.66 8 1.32 8 2 8 C2 8.66 2 9.32 2 10 C-0.31 10.66 -2.62 11.32 -5 12 C-4.67 11.34 -4.34 10.68 -4 10 C-3.01 10 -2.02 10 -1 10 C-5 10 -5 10 -8 9 C-5 7 -5 7 -3 6 C-1.95191959 4.02477154 -0.9479589 2.02518491 0 0 Z " fill="#611A24" transform="translate(362,138)"/>
<path d="M0 0 C0.33 1.32 0.66 2.64 1 4 C0.01 4.495 0.01 4.495 -1 5 C-1 5.66 -1 6.32 -1 7 C-2.65 7.66 -4.3 8.32 -6 9 C-6 9.66 -6 10.32 -6 11 C-6.66 11 -7.32 11 -8 11 C-8.66 12.98 -9.32 14.96 -10 17 C-10.99 17 -11.98 17 -13 17 C-11.40981219 14.34552379 -9.80058522 11.70311377 -8.1875 9.0625 C-7.73568359 8.30775391 -7.28386719 7.55300781 -6.81835938 6.77539062 C-6.37685547 6.05673828 -5.93535156 5.33808594 -5.48046875 4.59765625 C-5.07723389 3.93258057 -4.67399902 3.26750488 -4.25854492 2.58227539 C-3 1 -3 1 0 0 Z " fill="#6F2B36" transform="translate(70,139)"/>
<path d="M0 0 C5.66129431 4.69766975 10.85228904 9.74723372 16 15 C15.34 15.66 14.68 16.32 14 17 C9.05 12.05 4.1 7.1 -1 2 C-0.67 1.34 -0.34 0.68 0 0 Z " fill="#FCFAF9" transform="translate(90,488)"/>
<path d="M0 0 C5.75 1.75 5.75 1.75 8 4 C5.36 5.98 2.72 7.96 0 10 C-1.32 9.34 -2.64 8.68 -4 8 C-2.02 7.34 -0.04 6.68 2 6 C2 5.34 2 4.68 2 4 C1.01 4 0.02 4 -1 4 C-0.67 2.68 -0.34 1.36 0 0 Z " fill="#6C2732" transform="translate(459,521)"/>
<path d="M0 0 C1.88343932 3.76687864 2.22057835 5.02958963 2 9 C0.02 9.33 -1.96 9.66 -4 10 C-4 9.34 -4 8.68 -4 8 C-4.66 7.67 -5.32 7.34 -6 7 C-4.02 4.69 -2.04 2.38 0 0 Z " fill="#6E2B35" transform="translate(84,118)"/>
<path d="M0 0 C-0.66 0 -1.32 0 -2 0 C-2 0.66 -2 1.32 -2 2 C-4.37374776 2.36542427 -6.74826172 2.71756139 -9.125 3.0625 C-9.79015625 3.16626953 -10.4553125 3.27003906 -11.140625 3.37695312 C-15.34114812 3.97408631 -18.86069634 3.92199443 -23 3 C-23 2.67 -23 2.34 -23 2 C-19.91879316 1.4660256 -16.83482141 0.95014449 -13.75 0.4375 C-12.44095703 0.21030273 -12.44095703 0.21030273 -11.10546875 -0.02148438 C-10.26113281 -0.16005859 -9.41679687 -0.29863281 -8.546875 -0.44140625 C-7.77182617 -0.57232666 -6.99677734 -0.70324707 -6.19824219 -0.83813477 C-3.88826153 -1.00822774 -2.19914787 -0.68559092 0 0 Z " fill="#E3D4D7" transform="translate(359,575)"/>
<path d="M0 0 C2.55558711 2.55558711 3.29083985 4.99655959 4.5625 8.375 C4.99691406 9.51710938 5.43132813 10.65921875 5.87890625 11.8359375 C6.72676048 14.2288362 7.45767071 16.52600348 8 19 C5 18 5 18 3.6484375 15.41796875 C3.22820313 14.35191406 2.80796875 13.28585937 2.375 12.1875 C1.94960938 11.12917969 1.52421875 10.07085937 1.0859375 8.98046875 C-0.61595884 4.30943671 -0.61595884 4.30943671 -1 2 C-0.67 1.34 -0.34 0.68 0 0 Z " fill="#EFE4E4" transform="translate(35,396)"/>
<path d="M0 0 C5.7987136 3.41975417 10.58855392 7.9219354 15 13 C15 13.66 15 14.32 15 15 C10.96918 13.387672 8.24055863 10.53765404 5.25 7.5 C4.74339844 7.00113281 4.23679687 6.50226563 3.71484375 5.98828125 C0 2.25341139 0 2.25341139 0 0 Z " fill="#FEFDFD" transform="translate(489,90)"/>
<path d="M0 0 C0.66 0.66 1.32 1.32 2 2 C1.34 2 0.68 2 0 2 C-0.66 3.32 -1.32 4.64 -2 6 C-2.66 6 -3.32 6 -4 6 C-4 6.99 -4 7.98 -4 9 C-6.64 9 -9.28 9 -12 9 C-8.53005564 5.0963126 -4.44775994 2.63411025 0 0 Z " fill="#6F2C36" transform="translate(148,62)"/>
<path d="M0 0 C7.36259293 -0.22424141 13.87049629 0.09879901 21 2 C21 2.33 21 2.66 21 3 C6.92814371 3.26946108 6.92814371 3.26946108 1 2 C0.67 1.34 0.34 0.68 0 0 Z " fill="#F1E7E9" transform="translate(323,18)"/>
<path d="M0 0 C0.99 0.33 1.98 0.66 3 1 C-0.3 4.3 -3.6 7.6 -7 11 C-7.33 9.68 -7.66 8.36 -8 7 C-7.34 6.67 -6.68 6.34 -6 6 C-5.34786708 3.97536745 -5.34786708 3.97536745 -5 2 C-3.33333333 2 -1.66666667 2 0 2 C0 1.34 0 0.68 0 0 Z " fill="#6E2933" transform="translate(125,118)"/>
<path d="M0 0 C-2.25546395 2.25546395 -4.4410773 3.42943085 -7.25 4.9375 C-8.23097656 5.46472656 -9.21195313 5.99195313 -10.22265625 6.53515625 C-13.12910781 8.06809484 -16.04534104 9.56259835 -19 11 C-17.49242107 6.81947439 -14.95145442 5.42204768 -11.1875 3.25 C-10.14980469 2.63640625 -9.11210937 2.0228125 -8.04296875 1.390625 C-5.01750586 0.00800011 -3.26823022 -0.31413673 0 0 Z " fill="#F3E9EA" transform="translate(169,50)"/>
<path d="M0 0 C0 0.99 0 1.98 0 3 C-14.59681093 4.33257403 -14.59681093 4.33257403 -22 3 C-22 2.67 -22 2.34 -22 2 C-19.45887768 1.66198848 -16.91723254 1.32946621 -14.375 1 C-13.66214844 0.90460937 -12.94929688 0.80921875 -12.21484375 0.7109375 C-8.11178391 0.18393899 -4.14754258 -0.10466984 0 0 Z " fill="#732F39" transform="translate(342,545)"/>
<path d="M0 0 C2.2233881 2.2233881 2.3605016 2.92305521 2.8515625 5.9140625 C2.98046875 6.67460937 3.109375 7.43515625 3.2421875 8.21875 C3.36851563 9.0128125 3.49484375 9.806875 3.625 10.625 C3.7590625 11.42679687 3.893125 12.22859375 4.03125 13.0546875 C4.36134789 15.03527484 4.68161083 17.01749675 5 19 C4.34 19 3.68 19 3 19 C2.49161436 16.96040523 1.99366114 14.91820862 1.5 12.875 C1.2215625 11.73804688 0.943125 10.60109375 0.65625 9.4296875 C0.03546235 6.18533302 -0.12006768 3.29185543 0 0 Z " fill="#ECE3E3" transform="translate(21,346)"/>
<path d="M0 0 C3.3125 0.0625 3.3125 0.0625 7 1 C8.59040839 3.28141342 9.16506544 5.29874113 10 8 C5.17965738 7.58682778 3.09007389 5.61980085 0 2 C0 1.34 0 0.68 0 0 Z " fill="#621824" transform="translate(222,289)"/>
<path d="M0 0 C3 2 3 2 5 4 C6.32 4 7.64 4 9 4 C8.9175 4.763125 8.835 5.52625 8.75 6.3125 C8.70833333 9.14583333 8.70833333 9.14583333 11 10.8125 C11.66 11.204375 12.32 11.59625 13 12 C8.06267332 11.85038404 5.74818269 9.18893961 2.453125 5.88671875 C0.91815405 3.89373227 0.41239884 2.45811415 0 0 Z " fill="#5D1620" transform="translate(347,285)"/>
<path d="M0 0 C0.99 0.33 1.98 0.66 3 1 C2.79375 1.680625 2.5875 2.36125 2.375 3.0625 C1.89936171 6.78833331 2.82330851 9.46992554 4 13 C3.01 13.33 2.02 13.66 1 14 C0.67 13.01 0.34 12.02 0 11 C0.33 10.34 0.66 9.68 1 9 C0.34 9 -0.32 9 -1 9 C-1.125 2.25 -1.125 2.25 0 0 Z " fill="#6C222E" transform="translate(218,150)"/>
<path d="M0 0 C1 2 1 2 0.875 4 C0 6 0 6 -2.5 7.125 C-3.325 7.41375 -4.15 7.7025 -5 8 C-5.33 8.66 -5.66 9.32 -6 10 C-7.32 9.67 -8.64 9.34 -10 9 C-6.83047153 5.73991357 -3.60062011 2.77762123 0 0 Z " fill="#6D2933" transform="translate(133,72)"/>
<path d="M0 0 C0.33 0 0.66 0 1 0 C0.61020794 6.55925943 -0.42113193 11.94526627 -3 18 C-4.927545 11.97129543 -2.52403749 5.58894016 0 0 Z " fill="#F7F4F4" transform="translate(575,356)"/>
<path d="M0 0 C1.2065625 0.0309375 1.2065625 0.0309375 2.4375 0.0625 C2.375 1.875 2.375 1.875 1.4375 4.0625 C-1.9375 5.875 -1.9375 5.875 -5.5625 7.0625 C-6.5525 6.7325 -7.5425 6.4025 -8.5625 6.0625 C-2.5625 0.0625 -2.5625 0.0625 0 0 Z " fill="#621824" transform="translate(198.5625,66.9375)"/>
<path d="M0 0 C-1.50607883 4.10088936 -3.96188878 5.53509554 -7.625 7.75 C-9.12933594 8.67039062 -9.12933594 8.67039062 -10.6640625 9.609375 C-11.43492187 10.06828125 -12.20578125 10.5271875 -13 11 C-13 10.01 -13 9.02 -13 8 C-10.6640625 5.95703125 -10.6640625 5.95703125 -7.625 3.8125 C-6.12839844 2.73935547 -6.12839844 2.73935547 -4.6015625 1.64453125 C-2 0 -2 0 0 0 Z " fill="#F9F4F5" transform="translate(150,59)"/>
<path d="M0 0 C4.13621084 3.3810038 7.81316569 6.66590534 11 11 C7.12294944 10.42562214 4.88456423 8.57271945 2 6 C1.67 5.34 1.34 4.68 1 4 C0.01 3.34 -0.98 2.68 -2 2 C-1.34 2 -0.68 2 0 2 C0 1.34 0 0.68 0 0 Z " fill="#763440" transform="translate(490,93)"/>
<path d="M0 0 C2.625 -0.125 2.625 -0.125 6 1 C8.37477453 4.13962308 10.20898585 7.50053619 12 11 C11.01 11.33 10.02 11.66 9 12 C9 11.01 9 10.02 9 9 C8.34 9 7.68 9 7 9 C6.7525 8.195625 6.505 7.39125 6.25 6.5625 C5.8375 5.716875 5.425 4.87125 5 4 C2.97536745 3.34786708 2.97536745 3.34786708 1 3 C0.67 2.01 0.34 1.02 0 0 Z " fill="#F1C7CB" transform="translate(249,338)"/>
<path d="M0 0 C0.45375 0.495 0.9075 0.99 1.375 1.5 C2.87635519 3.22609337 2.87635519 3.22609337 5 3 C7.09230769 7.43076923 7.09230769 7.43076923 6.625 10.3125 C6.41875 10.869375 6.2125 11.42625 6 12 C5.67 11.01 5.34 10.02 5 9 C4.01 9.33 3.02 9.66 2 10 C2.33 8.68 2.66 7.36 3 6 C2.01 5.67 1.02 5.34 0 5 C0 3.35 0 1.7 0 0 Z " fill="#6E2530" transform="translate(252,156)"/>
<path d="M0 0 C1.2065625 0.0309375 1.2065625 0.0309375 2.4375 0.0625 C1.7775 0.7225 1.1175 1.3825 0.4375 2.0625 C0.293125 2.7225 0.14875 3.3825 0 4.0625 C-0.5625 6.0625 -0.5625 6.0625 -3.5625 8.0625 C-4.2225 7.7325 -4.8825 7.4025 -5.5625 7.0625 C-3.33446653 0.08132845 -3.33446653 0.08132845 0 0 Z " fill="#F2C3C6" transform="translate(353.5625,136.9375)"/>
<path d="M0 0 C0.33 0.99 0.66 1.98 1 3 C-1.7219246 4.3609623 -3.1831957 3.70366248 -6.125 3.0625 C-7.03507812 2.86785156 -7.94515625 2.67320312 -8.8828125 2.47265625 C-9.58148438 2.31667969 -10.28015625 2.16070313 -11 2 C-11 1.67 -11 1.34 -11 1 C-3.13953488 -1.56976744 -3.13953488 -1.56976744 0 0 Z M-10 3 C-7 4 -7 4 -7 4 Z " fill="#6D2530" transform="translate(376,538)"/>
<path d="M0 0 C1.485 0.99 1.485 0.99 3 2 C3 2.66 3 3.32 3 4 C4.32 4.66 5.64 5.32 7 6 C7 6.66 7 7.32 7 8 C7.66 8 8.32 8 9 8 C10.38232443 9.62626404 11.71937515 11.2925002 13 13 C10 13 10 13 8.02734375 11.42578125 C7.33769531 10.72839844 6.64804687 10.03101563 5.9375 9.3125 C5.24527344 8.62800781 4.55304688 7.94351562 3.83984375 7.23828125 C1.92211129 4.90524367 0.96189176 2.84580411 0 0 Z " fill="#611724" transform="translate(261,347)"/>
<path d="M0 0 C2 2 2 2 2.046875 4.96875 C1.89992187 6.71671875 1.89992187 6.71671875 1.75 8.5 C1.66234375 9.6653125 1.5746875 10.830625 1.484375 12.03125 C1 15 1 15 -1 17 C-1.02721176 15.10424749 -1.04649136 13.20838021 -1.0625 11.3125 C-1.07410156 10.25675781 -1.08570313 9.20101563 -1.09765625 8.11328125 C-1.00865425 5.27589738 -0.64939838 2.7561081 0 0 Z " fill="#EBC0C2" transform="translate(52,265)"/>
<path d="M0 0 C0.33 0 0.66 0 1 0 C1.33 4.62 1.66 9.24 2 14 C1.01 14.33 0.02 14.66 -1 15 C-2.19126781 11.42619658 -1.7349445 9.49116698 -1.0625 5.8125 C-0.86785156 4.72582031 -0.67320312 3.63914063 -0.47265625 2.51953125 C-0.31667969 1.68808594 -0.16070312 0.85664063 0 0 Z " fill="#F4C6CA" transform="translate(332,233)"/>
<path d="M0 0 C0.99 0.33 1.98 0.66 3 1 C2.0151399 5.5960138 0.50354501 8.81495908 -3 12 C-2.49202991 7.6822542 -1.80317221 3.96697886 0 0 Z " fill="#72303B" transform="translate(27,231)"/>
<path d="M0 0 C-1.62017842 1.33918806 -3.24629343 2.6711969 -4.875 4 C-6.23238281 5.11375 -6.23238281 5.11375 -7.6171875 6.25 C-10 8 -10 8 -12 8 C-10.67667681 4.03003043 -7.9910601 2.23963605 -4.75390625 -0.14453125 C-3 -1 -3 -1 0 0 Z " fill="#F7D0D2" transform="translate(155,99)"/>
<path d="M0 0 C0.33 0.66 0.66 1.32 1 2 C0.67 2.66 0.34 3.32 0 4 C0.66 4.33 1.32 4.66 2 5 C0.02 5.99 -1.96 6.98 -4 8 C-4.66 7.01 -5.32 6.02 -6 5 C-4.02 3.35 -2.04 1.7 0 0 Z " fill="#6C2832" transform="translate(115,87)"/>
<path d="M0 0 C-1.09283577 1.03295436 -2.19970579 2.05107835 -3.3125 3.0625 C-3.92738281 3.63097656 -4.54226563 4.19945312 -5.17578125 4.78515625 C-5.77777344 5.18605469 -6.37976563 5.58695312 -7 6 C-7.99 5.67 -8.98 5.34 -10 5 C-9.01906046 2.54765115 -8.31296172 1.2190732 -6.125 -0.3125 C-3.62654486 -1.12082372 -2.47071024 -0.71847013 0 0 Z " fill="#F2C8CB" transform="translate(459,491)"/>
<path d="M0 0 C0.99 0.33 1.98 0.66 3 1 C0.03 3.97 -2.94 6.94 -6 10 C-6.33 9.01 -6.66 8.02 -7 7 C-4.69 4.69 -2.38 2.38 0 0 Z " fill="#E9E0DF" transform="translate(100,98)"/>
<path d="M0 0 C6.93 0.495 6.93 0.495 14 1 C10.25631258 2.87184371 9.1599209 3.23999767 5.25 3.125 C4.45078125 3.10695313 3.6515625 3.08890625 2.828125 3.0703125 C2.22484375 3.04710937 1.6215625 3.02390625 1 3 C0.67 2.01 0.34 1.02 0 0 Z " fill="#F1E8E8" transform="translate(264,578)"/>
<path d="M0 0 C6.625 -0.25 6.625 -0.25 10 2 C9.67 2.99 9.34 3.98 9 5 C8.01 4.67 7.02 4.34 6 4 C6 3.34 6 2.68 6 2 C4.02 2 2.04 2 0 2 C0 1.34 0 0.68 0 0 Z " fill="#712B35" transform="translate(250,315)"/>
<path d="M0 0 C1.80330533 3.60661066 2.46599103 6.08393425 3 10 C2.34 10 1.68 10 1 10 C0.67 10.66 0.34 11.32 0 12 C-0.66 12 -1.32 12 -2 12 C-1.34 8.04 -0.68 4.08 0 0 Z " fill="#6D2934" transform="translate(251,188)"/>
<path d="M0 0 C1.44098611 0.76429661 2.87766054 1.53672555 4.3125 2.3125 C5.11300781 2.74175781 5.91351563 3.17101563 6.73828125 3.61328125 C8.83787272 4.90059554 10.35447721 6.18406708 12 8 C11.01 8.495 11.01 8.495 10 9 C8.3278148 7.88321917 6.66237197 6.75633648 5 5.625 C3.6078125 4.68527344 3.6078125 4.68527344 2.1875 3.7265625 C1.465625 3.15679687 0.74375 2.58703125 0 2 C0 1.34 0 0.68 0 0 Z " fill="#F5F5F5" transform="translate(450,60)"/>
<path d="M0 0 C3.375 -0.1875 3.375 -0.1875 7 0 C7.66 0.99 8.32 1.98 9 3 C7.375 4.125 7.375 4.125 5 5 C1.75 4.125 1.75 4.125 -1 3 C-0.67 2.01 -0.34 1.02 0 0 Z " fill="#712D39" transform="translate(207,562)"/>
<path d="M0 0 C5.47932789 1.54545146 10.11429181 4.15543212 15 7 C14.01 7.495 14.01 7.495 13 8 C10.6429774 7.05719096 8.30965848 6.05352843 6 5 C5.01 4.67 4.02 4.34 3 4 C3 3.34 3 2.68 3 2 C2.01 1.67 1.02 1.34 0 1 C0 0.67 0 0.34 0 0 Z " fill="#5C141F" transform="translate(178,518)"/>
<path d="M0 0 C0.33 0 0.66 0 1 0 C1.27694205 1.74593903 1.52057383 3.49718408 1.75 5.25 C1.88921875 6.22453125 2.0284375 7.1990625 2.171875 8.203125 C2 11 2 11 -2 15 C-1.34 10.05 -0.68 5.1 0 0 Z " fill="#E1B4B8" transform="translate(332,324)"/>
<path d="M0 0 C0.99 0 1.98 0 3 0 C3 2.64 3 5.28 3 8 C2.34 8 1.68 8 1 8 C0.67 8.66 0.34 9.32 0 10 C0 6.7 0 3.4 0 0 Z " fill="#611923" transform="translate(548,272)"/>
<path d="M0 0 C0.99 1.32 1.98 2.64 3 4 C2.67 4.66 2.34 5.32 2 6 C1.34 6 0.68 6 0 6 C-0.33 7.32 -0.66 8.64 -1 10 C-1.66 9.01 -2.32 8.02 -3 7 C-1.625 3.3125 -1.625 3.3125 0 0 Z " fill="#F2C5C9" transform="translate(77,185)"/>
<path d="M0 0 C1.17539996 0.92652701 2.34010577 1.86663387 3.5 2.8125 C4.1496875 3.33457031 4.799375 3.85664062 5.46875 4.39453125 C7 6 7 6 7 9 C3.46352496 7.32482761 2.2088437 6.50719183 0.6875 2.8125 C0.460625 1.884375 0.23375 0.95625 0 0 Z " fill="#F1C8CB" transform="translate(471,119)"/>
<path d="M0 0 C0.77321882 2.98241547 1.41196203 5.97580475 2 9 C-0.475 8.01 -0.475 8.01 -3 7 C-2.25 2.25 -2.25 2.25 0 0 Z " fill="#6F2833" transform="translate(90,111)"/>
<path d="M0 0 C-3.465 2.97 -3.465 2.97 -7 6 C-7.66 5.67 -8.32 5.34 -9 5 C-9 4.01 -9 3.02 -9 2 C-3.375 -1.125 -3.375 -1.125 0 0 Z " fill="#631825" transform="translate(423,518)"/>
<path d="M0 0 C0.99 0 1.98 0 3 0 C3.8125 1.6875 3.8125 1.6875 4 4 C1.5625 6.75 1.5625 6.75 -1 9 C-1.66 8.67 -2.32 8.34 -3 8 C-2.5359375 7.13375 -2.5359375 7.13375 -2.0625 6.25 C-1.07416636 4.15705816 -0.4831387 2.25464725 0 0 Z " fill="#FDD3D5" transform="translate(321,342)"/>
<path d="M0 0 C0.66 0 1.32 0 2 0 C2.28571429 7.42857143 2.28571429 7.42857143 0 11 C-1.26026798 8.47946405 -0.91874445 7.1457902 -0.5625 4.375 C-0.46066406 3.55773437 -0.35882812 2.74046875 -0.25390625 1.8984375 C-0.17011719 1.27195312 -0.08632813 0.64546875 0 0 Z " fill="#EBBFC2" transform="translate(545,325)"/>
<path d="M0 0 C0.33 0 0.66 0 1 0 C1.38922918 1.28745036 1.76098036 2.58019597 2.125 3.875 C2.33382812 4.59429687 2.54265625 5.31359375 2.7578125 6.0546875 C2.83773437 6.69664062 2.91765625 7.33859375 3 8 C2.34 8.66 1.68 9.32 1 10 C0.01 9.67 -0.98 9.34 -2 9 C-1.34 6.03 -0.68 3.06 0 0 Z " fill="#6D2531" transform="translate(213,160)"/>
<path d="M0 0 C4 1.33333333 8 2.66666667 12 4 C12 4.66 12 5.32 12 6 C7.61110675 5.33501617 4.0188515 3.81242323 0 2 C0 1.34 0 0.68 0 0 Z " fill="#EFC3C6" transform="translate(199,526)"/>
<path d="M0 0 C0.99 0.33 1.98 0.66 3 1 C3 1.66 3 2.32 3 3 C3.66 3 4.32 3 5 3 C5 3.66 5 4.32 5 5 C3.824375 5.4640625 3.824375 5.4640625 2.625 5.9375 C0.07669872 6.92875038 0.07669872 6.92875038 -2 8 C-1.34 5.36 -0.68 2.72 0 0 Z " fill="#712D37" transform="translate(377,197)"/>
<path d="M0 0 C-5.61 -0.33 -11.22 -0.66 -17 -1 C-17 -1.33 -17 -1.66 -17 -2 C-15.58456585 -2.19658808 -14.16755969 -2.38187546 -12.75 -2.5625 C-11.96109375 -2.66691406 -11.1721875 -2.77132812 -10.359375 -2.87890625 C-6.16903352 -3.09397345 -3.79057984 -1.89528992 0 0 Z " fill="#833F49" transform="translate(332,52)"/>
<path d="M0 0 C1.46015291 0.28241641 2.91809793 0.57626614 4.375 0.875 C5.18710938 1.03742187 5.99921875 1.19984375 6.8359375 1.3671875 C9 2 9 2 11 4 C9.02 4.66 7.04 5.32 5 6 C4.67 5.01 4.34 4.02 4 3 C2.00334686 1.31461399 2.00334686 1.31461399 0 0 Z " fill="#611823" transform="translate(213,534)"/>
<path d="M0 0 C0.99 0.33 1.98 0.66 3 1 C3.66 0.67 4.32 0.34 5 0 C4.67 1.65 4.34 3.3 4 5 C3.01 5.33 2.02 5.66 1 6 C0.01 4.68 -0.98 3.36 -2 2 C-1.34 2 -0.68 2 0 2 C0 1.34 0 0.68 0 0 Z " fill="#F5C6C9" transform="translate(274,340)"/>
<path d="M0 0 C1.99097846 2.98646769 2.94124926 5.59687262 4 9 C3.01 9 2.02 9 1 9 C1 8.01 1 7.02 1 6 C0.34 6 -0.32 6 -1 6 C-1.042721 4.33388095 -1.04063832 2.66617115 -1 1 C-0.67 0.67 -0.34 0.34 0 0 Z " fill="#77303D" transform="translate(554,181)"/>
<path d="M0 0 C2.31 0.66 4.62 1.32 7 2 C7 2.66 7 3.32 7 4 C4.66666667 4 2.33333333 4 0 4 C-0.99 4.495 -0.99 4.495 -2 5 C-1.34 3.35 -0.68 1.7 0 0 Z " fill="#6C242F" transform="translate(378,157)"/>
<path d="M0 0 C0 0.66 0 1.32 0 2 C-0.99 2.66 -1.98 3.32 -3 4 C-2.01 4.99 -1.02 5.98 0 7 C-1.98 6.34 -3.96 5.68 -6 5 C-6 4.01 -6 3.02 -6 2 C-2.25 0 -2.25 0 0 0 Z " fill="#621824" transform="translate(423,75)"/>
<path d="M0 0 C4.43458973 1.3937282 6.87378374 3.60582235 10 7 C6.65580848 7 5.93159679 6.52480606 3.3125 4.625 C2.68988281 4.18414062 2.06726563 3.74328125 1.42578125 3.2890625 C0.95527344 2.86367187 0.48476563 2.43828125 0 2 C0 1.34 0 0.68 0 0 Z " fill="#EFE7E8" transform="translate(461,68)"/>
<path d="M0 0 C1.8871875 0.0309375 1.8871875 0.0309375 3.8125 0.0625 C0.82603231 2.05347846 -1.78437262 3.00374926 -5.1875 4.0625 C-5.1875 3.4025 -5.1875 2.7425 -5.1875 2.0625 C-5.8475 1.7325 -6.5075 1.4025 -7.1875 1.0625 C-4.43671116 0.14557039 -2.82801087 -0.04636083 0 0 Z " fill="#F0C3C6" transform="translate(234.1875,58.9375)"/>
<path d="M0 0 C0.66 0.66 1.32 1.32 2 2 C1.7578125 4.1640625 1.7578125 4.1640625 1.125 6.625 C0.92132812 7.44226563 0.71765625 8.25953125 0.5078125 9.1015625 C0.34023438 9.72804688 0.17265625 10.35453125 0 11 C-2 9 -2 9 -2.01171875 7.08984375 C-1.11111111 1.11111111 -1.11111111 1.11111111 0 0 Z " fill="#EFC2C5" transform="translate(538,361)"/>
<path d="M0 0 C0 3 0 3 -1.2421875 4.60546875 C-1.78101563 5.12753906 -2.31984375 5.64960938 -2.875 6.1875 C-3.40867187 6.71730469 -3.94234375 7.24710937 -4.4921875 7.79296875 C-6 9 -6 9 -8 9 C-7.67 8.01 -7.34 7.02 -7 6 C-6.34 6 -5.68 6 -5 6 C-5 5.34 -5 4.68 -5 4 C-4.34 4 -3.68 4 -3 4 C-3 3.34 -3 2.68 -3 2 C-2.01 1.34 -1.02 0.68 0 0 Z " fill="#5E121F" transform="translate(333,353)"/>
<path d="M0 0 C0.99 0.495 0.99 0.495 2 1 C2.4140625 3.28515625 2.4140625 3.28515625 2.625 6.0625 C2.69976562 6.98160156 2.77453125 7.90070313 2.8515625 8.84765625 C2.92503906 9.91306641 2.92503906 9.91306641 3 11 C1.03553095 9.3655205 0.07682209 8.53570606 -0.29296875 5.95703125 C-0.1953125 3.97135417 -0.09765625 1.98567708 0 0 Z " fill="#6D2933" transform="translate(52,339)"/>
<path d="M0 0 C2.125 0.9375 2.125 0.9375 4 2 C2.68 3.32 1.36 4.64 0 6 C-0.66 5.34 -1.32 4.68 -2 4 C-2 3.01 -2 2.02 -2 1 C-1.34 0.67 -0.68 0.34 0 0 Z " fill="#F4C5C9" transform="translate(244,314)"/>
<path d="M0 0 C2.375 0.3125 2.375 0.3125 5 1 C5.66 1.99 6.32 2.98 7 4 C5.1875 4.6875 5.1875 4.6875 3 5 C1.25 3.6875 1.25 3.6875 0 2 C0 1.34 0 0.68 0 0 Z " fill="#F2C4C8" transform="translate(346,290)"/>
<path d="M0 0 C0.99 0.33 1.98 0.66 3 1 C2.30058404 4.14737182 1.23921302 7.02588876 0 10 C-1.2380014 6.42355152 -0.74926071 3.66305234 0 0 Z " fill="#ECBDC1" transform="translate(391,250)"/>
<path d="M0 0 C1.88391785 3.26545761 2.49287967 6.28111761 3 10 C2.01 10 1.02 10 0 10 C-1.2380014 6.42355152 -0.74926071 3.66305234 0 0 Z " fill="#6D2C35" transform="translate(219,192)"/>
<path d="M0 0 C1.98 0 3.96 0 6 0 C4.50902342 3.7952131 2.24299151 5.61042731 -1 8 C0 6 1 4 2 2 C1.34 1.34 0.68 0.68 0 0 Z " fill="#5F1722" transform="translate(111,128)"/>
<path d="M0 0 C1.67542976 0.28604898 3.34385343 0.61781233 5 1 C3.3545622 2.68762851 1.68711423 4.3540349 0 6 C-0.33 6 -0.66 6 -1 6 C-1.042721 4.33388095 -1.04063832 2.66617115 -1 1 C-0.67 0.67 -0.34 0.34 0 0 Z " fill="#722E3A" transform="translate(474,514)"/>
<path d="M0 0 C1.32 0 2.64 0 4 0 C5.75 2 5.75 2 7 4 C5.1875 4.6875 5.1875 4.6875 3 5 C1.25 3.6875 1.25 3.6875 0 2 C0 1.34 0 0.68 0 0 Z " fill="#F0C4C8" transform="translate(179,515)"/>
<path d="M0 0 C4.455 0.99 4.455 0.99 9 2 C9 2.99 9 3.98 9 5 C4.68607774 4.5206753 2.83430453 3.2542015 0 0 Z " fill="#F7D1D3" transform="translate(171,512)"/>
<path d="M0 0 C0.33 1.32 0.66 2.64 1 4 C-1.97 6.475 -1.97 6.475 -5 9 C-5 4.61031544 -2.87194899 3.23094261 0 0 Z " fill="#EBE2E2" transform="translate(521,471)"/>
<path d="M0 0 C0.33 0.66 0.66 1.32 1 2 C-0.4375 4.625 -0.4375 4.625 -2 7 C-3.32 6.67 -4.64 6.34 -6 6 C-4.02 4.02 -2.04 2.04 0 0 Z " fill="#F0C3C6" transform="translate(333,355)"/>
<path d="M0 0 C1.32 0.33 2.64 0.66 4 1 C3.6875 2.875 3.6875 2.875 3 5 C2.01 5.66 1.02 6.32 0 7 C0 4.69 0 2.38 0 0 Z " fill="#611822" transform="translate(547,328)"/>
<path d="M0 0 C1.53166168 4.08443115 0.63081652 7.79455657 0 12 C-0.33 12 -0.66 12 -1 12 C-1.22162329 10.37675914 -1.42689803 8.751279 -1.625 7.125 C-1.74101562 6.22007812 -1.85703125 5.31515625 -1.9765625 4.3828125 C-1.98429687 3.59648437 -1.99203125 2.81015625 -2 2 C-1.34 1.34 -0.68 0.68 0 0 Z " fill="#E7D9DA" transform="translate(20,261)"/>
<path d="M0 0 C3.37503669 1.1858237 5.64722731 2.27573689 8 5 C5.69 5 3.38 5 1 5 C0.67 3.35 0.34 1.7 0 0 Z " fill="#EFC7C9" transform="translate(432,89)"/>
<path d="M0 0 C7.57142857 3 7.57142857 3 10 6 C6.05879291 5.43697042 3.2491277 4.3208055 0 2 C0 1.34 0 0.68 0 0 Z " fill="#FBF6F1" transform="translate(429,48)"/>
<path d="M0 0 C0.33 2.31 0.66 4.62 1 7 C0.01 7.495 0.01 7.495 -1 8 C-1.66 7.34 -2.32 6.68 -3 6 C-3 5.01 -3 4.02 -3 3 C-3.33 2.34 -3.66 1.68 -4 1 C-2 0 -2 0 0 0 Z " fill="#6F2632" transform="translate(508,480)"/>
<path d="M0 0 C1.1875 1.5625 1.1875 1.5625 2 4 C0.625 7.75 0.625 7.75 -1 11 C-1.33 11 -1.66 11 -2 11 C-1.85892253 9.54119891 -1.71197585 8.08296449 -1.5625 6.625 C-1.48128906 5.81289062 -1.40007812 5.00078125 -1.31640625 4.1640625 C-1 2 -1 2 0 0 Z " fill="#611823" transform="translate(339,168)"/>
<path d="M0 0 C4 4.75 4 4.75 4 7 C2.0625 6.6875 2.0625 6.6875 0 6 C-1 3 -1 3 0 0 Z " fill="#72303B" transform="translate(546,166)"/>
<path d="M0 0 C0.66 0.33 1.32 0.66 2 1 C2 1.66 2 2.32 2 3 C1.34 3 0.68 3 0 3 C-0.33 4.65 -0.66 6.3 -1 8 C-1.99 7.67 -2.98 7.34 -4 7 C-2.68 4.69 -1.36 2.38 0 0 Z " fill="#EEC5C8" transform="translate(96,154)"/>
<path d="M0 0 C2.475 0.99 2.475 0.99 5 2 C5.33 4.31 5.66 6.62 6 9 C0.42857143 3.85714286 0.42857143 3.85714286 0 0 Z " fill="#5C1621" transform="translate(503,154)"/>
<path d="M0 0 C-0.66 0 -1.32 0 -2 0 C-1.67 0.99 -1.34 1.98 -1 3 C-2.65 3.66 -4.3 4.32 -6 5 C-6 3.33333333 -6 1.66666667 -6 0 C-3.50907189 -1.24546405 -2.58919267 -0.7767578 0 0 Z " fill="#712A36" transform="translate(234,139)"/>
<path d="M0 0 C2.12038635 2.61514317 4.13091744 5.19637616 6 8 C4.125 7.6875 4.125 7.6875 2 7 C0 4 0 4 0 0 Z " fill="#F2EBEB" transform="translate(70,462)"/>
<path d="M0 0 C1.2077558 3.62326739 0.54311128 4.64146369 -1 8 C-1.66 7.34 -2.32 6.68 -3 6 C-2.75 3.4375 -2.75 3.4375 -2 1 C-1.34 0.67 -0.68 0.34 0 0 Z " fill="#6E2C37" transform="translate(559,402)"/>
<path d="M0 0 C1.27351308 2.54702616 0.80191925 3.4282945 0.0625 6.125 C-0.13214844 6.84945312 -0.32679687 7.57390625 -0.52734375 8.3203125 C-0.68332031 8.87460938 -0.83929687 9.42890625 -1 10 C-1.66 9.34 -2.32 8.68 -3 8 C-2.54545455 2.54545455 -2.54545455 2.54545455 0 0 Z " fill="#ECE0E1" transform="translate(27,226)"/>
<path d="M0 0 C0.99 0.33 1.98 0.66 3 1 C2.67 3.31 2.34 5.62 2 8 C1.34 7.67 0.68 7.34 0 7 C0 4.69 0 2.38 0 0 Z " fill="#732934" transform="translate(57,227)"/>
<path d="M0 0 C0.66 0.33 1.32 0.66 2 1 C2.625 3.5625 2.625 3.5625 3 6 C1.35 6.66 -0.3 7.32 -2 8 C-1.34 5.36 -0.68 2.72 0 0 Z " fill="#6E2D38" transform="translate(35,202)"/>
<path d="M0 0 C2 3 2 3 1.8125 5.5625 C1 8 1 8 -2 10 C-1.125 5.125 -1.125 5.125 0 4 C0 2.68 0 1.36 0 0 Z " fill="#79343F" transform="translate(387,167)"/>
<path d="M0 0 C1.65 1.65 3.3 3.3 5 5 C4.01 5.66 3.02 6.32 2 7 C2 6.34 2 5.68 2 5 C1.01 4.67 0.02 4.34 -1 4 C-0.67 2.68 -0.34 1.36 0 0 Z " fill="#F2C6C8" transform="translate(493,143)"/>
<path d="M0 0 C1.32 0.66 2.64 1.32 4 2 C3.01 2.99 2.02 3.98 1 5 C0.01 4.67 -0.98 4.34 -2 4 C-2.33 3.34 -2.66 2.68 -3 2 C-2.01 2 -1.02 2 0 2 C0 1.34 0 0.68 0 0 Z " fill="#6D242E" transform="translate(366,138)"/>
<path d="M0 0 C0.99 0.33 1.98 0.66 3 1 C-0.465 3.97 -0.465 3.97 -4 7 C-4.66 6.67 -5.32 6.34 -6 6 C-4.02 4.02 -2.04 2.04 0 0 Z " fill="#FCD6D9" transform="translate(132,114)"/>
<path d="M0 0 C1.98 0 3.96 0 6 0 C6.33 1.32 6.66 2.64 7 4 C4.97954558 3.39816251 2.97888961 2.72693904 1 2 C0.67 1.34 0.34 0.68 0 0 Z " fill="#72323D" transform="translate(166,546)"/>
<path d="M0 0 C1.14926266 0.95421808 2.29430541 1.91352045 3.4375 2.875 C4.07558594 3.40867187 4.71367188 3.94234375 5.37109375 4.4921875 C7 6 7 6 8 8 C4.11137013 6.73882275 2.10624401 5.54735833 0 2 C0 1.34 0 0.68 0 0 Z " fill="#5E1622" transform="translate(119,472)"/>
<path d="M0 0 C0 3.69418201 -1.28179295 5.77836178 -3 9 C-3.33 9 -3.66 9 -4 9 C-4.25 6.75 -4.25 6.75 -4 4 C-2 1.6875 -2 1.6875 0 0 Z " fill="#FAF5F7" transform="translate(548,432)"/>
<path d="M0 0 C1.65 0 3.3 0 5 0 C4.01 1.98 3.02 3.96 2 6 C0 3 0 3 0 0 Z " fill="#ECC0C4" transform="translate(507,429)"/>
<path d="M0 0 C0.66 1.32 1.32 2.64 2 4 C2.66 4 3.32 4 4 4 C3.34 5.32 2.68 6.64 2 8 C0.4375 6.8125 0.4375 6.8125 -1 5 C-0.6875 2.3125 -0.6875 2.3125 0 0 Z " fill="#722934" transform="translate(531,389)"/>
<path d="M0 0 C0.99 0.495 0.99 0.495 2 1 C2.59355614 3.64860427 2.74209269 6.29197322 3 9 C2.01 9.495 2.01 9.495 1 10 C0 3.375 0 3.375 0 0 Z " fill="#621823" transform="translate(58,367)"/>
<path d="M0 0 C2.31 0.33 4.62 0.66 7 1 C6.67 1.99 6.34 2.98 6 4 C4.02 3.34 2.04 2.68 0 2 C0 1.34 0 0.68 0 0 Z " fill="#EFC0C4" transform="translate(286,370)"/>
<path d="M0 0 C-3.99560608 2.83022097 -7.42737323 1.76210446 -12 1 C-12 0.67 -12 0.34 -12 0 C-3.42857143 -1.28571429 -3.42857143 -1.28571429 0 0 Z " fill="#5E111D" transform="translate(308,360)"/>
<path d="M0 0 C0 0.66 0 1.32 0 2 C-2.64 2.33 -5.28 2.66 -8 3 C-8 2.34 -8 1.68 -8 1 C-5.07175348 0.02391783 -3.04386724 -0.08226668 0 0 Z " fill="#FB777E" transform="translate(456,322)"/>
<path d="M0 0 C1.88391785 3.26545761 2.49287967 6.28111761 3 10 C2.34 10 1.68 10 1 10 C-0.60725635 6.78548731 -0.05748185 3.56387464 0 0 Z " fill="#72363F" transform="translate(347,192)"/>
<path d="M0 0 C0.33 0 0.66 0 1 0 C1.33 2.31 1.66 4.62 2 7 C1.34 7 0.68 7 0 7 C0 8.98 0 10.96 0 13 C-0.33 13 -0.66 13 -1 13 C-1.07654536 8.48382401 -1.10228696 4.40914783 0 0 Z " fill="#894650" transform="translate(206,187)"/>
<path d="M0 0 C0.99 0.99 1.98 1.98 3 3 C2.67 3.66 2.34 4.32 2 5 C-0.0625 5.625 -0.0625 5.625 -2 6 C-1.125 1.125 -1.125 1.125 0 0 Z " fill="#611723" transform="translate(345,153)"/>
</svg>
